<?xml version="1.0" encoding="utf-8"?>
<!-- Generator: Adobe Illustrator 22.0.1, SVG Export Plug-In . SVG Version: 6.00 Build 0)  -->
<svg version="1.1" id="Layer_1" xmlns="http://www.w3.org/2000/svg" xmlns:xlink="http://www.w3.org/1999/xlink" x="0px" y="0px"
	 width="73px" height="48px" viewBox="0 0 73 48" style="enable-background:new 0 0 73 48;" xml:space="preserve">
<path id="XMLID_708_" style="fill:#F05E4E;" d="M60.9,31.8L60.9,31.8l11.7-6c-3.5-2.3-21.7-11-28.8-3.6c-0.5,0.5-0.9,1-1.4,1.5
	C49.9,24.8,56.4,27.7,60.9,31.8z"/>
<path id="XMLID_509_" style="fill:#B23232;" d="M55.4,27.9l10.1-5.6c-9.1-3.7-14.3-2.6-20.2,1c-0.4,0.2-0.7,0.5-1,0.7
	C48.4,24.8,52.2,26.1,55.4,27.9z"/>
<path id="XMLID_506_" style="fill:#6CC294;" d="M33.4,23.3c7.4-0.4,14.2,0.9,19.9,3.5c0,0,0,0,0.1,0c0,0,3.4-2.7,8.4-6.1
	s8.2-5.9,8.2-5.9c-2.6-1.8-8.9-3.4-12.8-4C45.4,9.2,35.8,15,31.9,23.4C32.4,23.3,32.9,23.3,33.4,23.3z"/>
<path id="XMLID_503_" style="fill:#4B9F71;" d="M33.4,23.3c5.6-0.3,11,0.4,15.7,1.9l4.6-14.6c-11.3-0.4-21,5.2-24.4,12.8
	c0,0.1-0.1,0.2-0.1,0.2C30.6,23.5,32,23.4,33.4,23.3z"/>
<path id="XMLID_500_" style="fill:#F3DE3C;" d="M33.4,23.3c4.5-0.2,8.8,0.3,12.7,1.1l6.5-23.8c-5.1-0.4-10.5,0.1-15.8,1.7
	C22.2,6.7,13.5,17.7,16,27.8C21,25.3,26.9,23.6,33.4,23.3z"/>
<path id="XMLID_497_" style="fill:#CDAF31;" d="M33.4,23.3c2-0.1,3.9-0.1,5.7,0.1l-8-18.9C20,9.7,13.9,19.1,16,27.8
	C21,25.3,26.9,23.6,33.4,23.3z"/>
<path id="XMLID_485_" style="fill:#19ABD6;" d="M33.4,23.3c0.8,0,1.5-0.1,2.2-0.1c-0.6-1.5-2.5-6-5.6-11.3
	c-3.7-6.5-6.1-10.6-6.1-10.6c-5.6,2-12.4,5.6-16.3,9.5c-8.7,8.6-9.4,19.1-3.1,27C9.5,29.9,20.4,24,33.4,23.3z"/>
<path id="XMLID_330_" style="fill:#314152;" d="M42.8,34.3l-7.2,5.1l2.6-7.7c-0.8-0.2-1.7-0.3-2.6-0.3c-5.2,0-9.3,3.6-9.3,8.1
	s4.2,8.1,9.3,8.1c5.2,0,9.3-3.6,9.3-8.1C44.9,37.5,44.1,35.7,42.8,34.3z"/>
</svg>
