<?xml version="1.0" encoding="utf-8"?>
<!-- Generator: Adobe Illustrator 21.1.0, SVG Export Plug-In . SVG Version: 6.00 Build 0)  -->
<svg version="1.1" id="Layer_1" xmlns="http://www.w3.org/2000/svg" xmlns:xlink="http://www.w3.org/1999/xlink" x="0px" y="0px"
	 viewBox="0 0 40 40" style="enable-background:new 0 0 40 40;" xml:space="preserve">
<style type="text/css">
	.st0{fill:#283143;stroke:#283143;stroke-miterlimit:10;}
</style>
<path class="st0" d="M36,11H4c-1.7,0-3-1.3-3-3l0,0c0-1.7,1.3-3,3-3h32c1.7,0,3,1.3,3,3l0,0C39,9.7,37.7,11,36,11z"/>
<path class="st0" d="M36,23H4c-1.7,0-3-1.3-3-3l0,0c0-1.7,1.3-3,3-3h32c1.7,0,3,1.3,3,3l0,0C39,21.7,37.7,23,36,23z"/>
<path class="st0" d="M36,35H4c-1.7,0-3-1.3-3-3l0,0c0-1.7,1.3-3,3-3h32c1.7,0,3,1.3,3,3l0,0C39,33.7,37.7,35,36,35z"/>
</svg>
