<?xml version="1.0" encoding="utf-8"?>
<!-- Generator: Adobe Illustrator 15.1.0, SVG Export Plug-In  -->
<!DOCTYPE svg PUBLIC "-//W3C//DTD SVG 1.0//EN" "http://www.w3.org/TR/2001/REC-SVG-20010904/DTD/svg10.dtd" [
	<!ENTITY ns_flows "http://ns.adobe.com/Flows/1.0/">
]>
<svg version="1.0"
	 xmlns="http://www.w3.org/2000/svg" xmlns:xlink="http://www.w3.org/1999/xlink" xmlns:a="http://ns.adobe.com/AdobeSVGViewerExtensions/3.0/"
	 x="0px" y="0px" width="72px" height="19px" viewBox="-1.063 -0.836 72 19" style="enable-background:new -1.063 -0.836 72 19;"
	 xml:space="preserve">
<style type="text/css">
<![CDATA[
	.st0{font-size:10.7623;}
	.st1{font-family:'BebasNeueRegular';}
	.st2{fill:#FFFFFF;}
	.st3{letter-spacing:1;}
]]>
</style>
<defs>
</defs>
<path class="st2" d="M34.147,13.01c0.763-0.184,0.417-1.235-0.319-1.053l-4.31,1.143c-0.739,0.205-0.394,1.208,0.346,1.047
	L34.147,13.01z"/>
<path class="st2" d="M34.147,14.74c0.763-0.204,0.417-1.23-0.319-1.025l-4.31,1.117c-0.739,0.206-0.394,1.23,0.346,1.024
	L34.147,14.74z"/>
<path class="st2" d="M32.865,15.995c0-0.139-0.023-0.229-0.047-0.276l-1.946,0.502c0.122,0.412,0.518,0.684,0.986,0.684
	C32.401,16.904,32.865,16.473,32.865,15.995"/>
<path class="st2" d="M29.399,5.394c0,0.008,0.003,0.019,0.003,0.019s-0.005-0.014-0.005-0.019H29.399z"/>
<polygon class="st2" points="30.769,8.589 30.12,7.204 30.521,9.933 31.242,9.933 31.242,8.369 "/>
<polygon class="st2" points="33.606,6.2 32.596,7.402 31.534,6.512 32.195,7.924 31.25,8.365 32.811,8.365 32.811,9.933 
	33.059,9.933 33.609,6.2 "/>
<polygon class="st2" points="31.394,6.394 31.556,6.2 29.973,6.2 30.114,7.165 31.526,6.504 "/>
<path class="st2" d="M36.544,4.764C36.618,2.05,34.499-0.025,31.719,0c-2.834-0.025-4.925,2.05-4.875,4.764
	c0.096,3.577,2.459,3.669,2.459,6.224v0.32c-0.636,0.227-0.293,1.161,0.417,0.979l4.285-1.116c0.568-0.159,0.519-0.751,0.174-0.958
	C34.622,8.365,36.493,7.933,36.544,4.764 M27.532,4.82c0-2.437,1.701-4.103,4.165-4.103c2.434,0,4.158,1.667,4.158,4.103
	c0,1.913-0.922,2.697-1.654,3.722c0.113-0.759,0.262-1.747,0.459-3.036l0.02-0.046c0.032-0.063,0.103-0.216,0.008-0.367
	c-0.099-0.164-0.3-0.197-0.658-0.204c-0.005,0-4.502-0.024-4.502-0.024c-0.238,0-0.499,0.021-0.627,0.202
	c-0.112,0.161-0.047,0.33-0.021,0.403l0.007,0.015l0.573,3.49C28.735,7.714,27.532,7.016,27.532,4.82 M34.146,5.433l-0.812,5.281
	c-0.009,0.028-0.097,0.097-0.216,0.097c-0.003,0-2.618,0.016-2.618,0.016c-0.125,0-0.215-0.068-0.224-0.1
	c0-0.002-0.876-5.329-0.876-5.333c0.033-0.003,0.064-0.004,0.124-0.004c0,0,1.447,0.007,2.699,0.012l0.437,0.002
	c0.762,0.004,1.363,0.006,1.363,0.006s0.061,0.007,0.125,0.012L34.146,5.433z"/>
<g>
	<path class="st2" d="M2.194,8.188c1.173,0,1.711,0.71,1.711,1.872v3.797c0,1.151-0.538,1.861-1.711,1.861H0.43v-7.53H2.194z
		 M2.184,14.955c0.603,0,0.893-0.377,0.893-1.064v-3.874c0-0.688-0.291-1.065-0.904-1.065H1.27v6.003H2.184z"/>
	<path class="st2" d="M7.446,8.188c1.184,0,1.679,0.603,1.679,1.721v0.614c0,0.828-0.291,1.344-0.936,1.549
		c0.688,0.204,0.947,0.764,0.947,1.57v1.172c0,0.334,0.011,0.646,0.15,0.904h-0.85c-0.097-0.215-0.14-0.408-0.14-0.914v-1.184
		c0-0.85-0.398-1.119-1.097-1.119H6.607v3.217H5.769v-7.53H7.446z M7.231,11.738c0.667,0,1.065-0.215,1.065-1.033v-0.72
		c0-0.678-0.248-1.033-0.872-1.033H6.607v2.786H7.231z"/>
	<path class="st2" d="M11.924,8.188v7.53h-0.839v-7.53H11.924z"/>
	<path class="st2" d="M14.604,15.719h-0.753v-7.53h1.065l1.742,5.443V8.188H17.4v7.53h-0.871L14.604,9.63V15.719z"/>
	<path class="st2" d="M20.619,12.448l-0.441,0.743v2.527h-0.839v-7.53h0.839v3.636l2.001-3.636h0.85l-1.904,3.432l1.969,4.099
		h-0.861L20.619,12.448z"/>
</g>
<g>
	<path class="st2" d="M42.229,9.996V10.2h-0.795V9.953c0-0.678-0.259-1.076-0.861-1.076s-0.86,0.398-0.86,1.065
		c0,1.689,2.528,1.851,2.528,3.97c0,1.14-0.549,1.882-1.7,1.882s-1.688-0.742-1.688-1.882v-0.431h0.785v0.474
		c0,0.678,0.279,1.075,0.882,1.075s0.882-0.397,0.882-1.075c0-1.679-2.517-1.84-2.517-3.959c0-1.162,0.538-1.882,1.667-1.882
		C41.692,8.113,42.229,8.855,42.229,9.996z"/>
	<path class="st2" d="M46.826,15.708h-0.808l-1.247-5.992v6.002H44.04v-7.53h1.172l1.237,6.014l1.194-6.014h1.172v7.53h-0.795V9.662
		L46.826,15.708z"/>
	<path class="st2" d="M51.604,14.202l-0.29,1.517H50.54l1.441-7.53h1.216l1.441,7.53H53.8l-0.291-1.517H51.604z M51.713,13.481
		h1.678l-0.85-4.346L51.713,13.481z"/>
	<path class="st2" d="M58.051,8.188c1.184,0,1.679,0.603,1.679,1.721v0.614c0,0.828-0.291,1.344-0.936,1.549
		c0.688,0.204,0.946,0.764,0.946,1.57v1.172c0,0.334,0.011,0.646,0.15,0.904h-0.85c-0.097-0.215-0.14-0.408-0.14-0.914v-1.184
		c0-0.85-0.398-1.119-1.098-1.119h-0.592v3.217h-0.839v-7.53H58.051z M57.836,11.738c0.667,0,1.065-0.215,1.065-1.033v-0.72
		c0-0.678-0.248-1.033-0.872-1.033h-0.817v2.786H57.836z"/>
	<path class="st2" d="M62.787,15.719V8.952h-1.388V8.188h3.614v0.764h-1.388v6.767H62.787z"/>
	<path class="st2" d="M70.726,9.94c0,1.279-0.915,2.22-2.157,2.22c-1.241,0-2.157-0.941-2.157-2.22c0-1.279,0.916-2.22,2.157-2.22
		C69.811,7.72,70.726,8.661,70.726,9.94z M66.731,9.94c0,1.091,0.777,1.906,1.837,1.906s1.838-0.814,1.838-1.906
		s-0.778-1.907-1.838-1.907S66.731,8.849,66.731,9.94z M68.601,8.598c0.477,0,0.683,0.245,0.683,0.703v0.063
		c0,0.326-0.106,0.54-0.363,0.633c0.263,0.088,0.363,0.308,0.363,0.627v0.289c0,0.138,0.007,0.264,0.069,0.369h-0.357
		c-0.037-0.088-0.051-0.162-0.051-0.369v-0.289c0-0.352-0.169-0.451-0.457-0.451h-0.232v1.109h-0.338V8.598H68.601z M68.537,9.852
		c0.257,0,0.401-0.101,0.401-0.414v-0.1c0-0.276-0.094-0.427-0.357-0.427h-0.326v0.941H68.537z"/>
</g>
</svg>
