<?xml version="1.0" encoding="utf-8"?>
<!-- Generator: Adobe Illustrator 15.1.0, SVG Export Plug-In  -->
<!DOCTYPE svg PUBLIC "-//W3C//DTD SVG 1.1//EN" "http://www.w3.org/Graphics/SVG/1.1/DTD/svg11.dtd" [
	<!ENTITY ns_flows "http://ns.adobe.com/Flows/1.0/">
]>
<svg version="1.1"
	 xmlns="http://www.w3.org/2000/svg" xmlns:xlink="http://www.w3.org/1999/xlink" xmlns:a="http://ns.adobe.com/AdobeSVGViewerExtensions/3.0/"
	 x="0px" y="0px" width="224px" height="41px" viewBox="-0.816 -1.157 224 41" enable-background="new -0.816 -1.157 224 41"
	 xml:space="preserve">
<defs>
</defs>
<g>
	<g>
		<defs>
			<rect id="SVGID_1_" width="222" height="38.949"/>
		</defs>
		<clipPath id="SVGID_2_">
			<use xlink:href="#SVGID_1_"  overflow="visible"/>
		</clipPath>
		<path clip-path="url(#SVGID_2_)" fill="#5A595C" d="M12.503,38.92c33.696-3.212,67.965-4.856,102.502-4.856
			c34.639,0,68.719,1.655,102.512,4.886v-0.384c-33.632-3.947-67.826-6.049-102.512-6.049c-34.688,0-68.867,2.103-102.502,6.048
			V38.92L12.503,38.92z"/>
		<path clip-path="url(#SVGID_2_)" fill="#9D1C31" d="M66.763,19.472c-1.041,0.632-3.237,1.752-4.142,1.99
			c-0.45,0.096-0.88,0.032-1.125-0.221c-0.158-0.129-0.224-0.313-0.209-0.511c0.081-0.516,0.884-1.814,2.426-2.574l0.514-0.249
			c1.092-0.525,1.271-0.618,2.13-0.821c0.916-0.208,2.125-0.287,2.5-0.047c0.054,0.034,0.063,0.063,0.063,0.073
			C68.995,17.465,67.867,18.78,66.763,19.472L66.763,19.472z M48.218,15.3c0.569-0.502,1.152-0.958,1.346-1.068
			c1.077-0.654,1.538-0.825,2.311-0.602c0.493,0.142,0.521,0.389,0.544,0.727c0.02,0.294-0.283,0.58-0.647,0.781
			c-0.699,0.398-1.576,0.739-2.267,1.044c-0.085,0.042-2.403,0.941-2.503,0.761C46.86,16.672,47.65,15.802,48.218,15.3L48.218,15.3z
			 M109.92,21.176c-0.257-0.501-1.277-0.505-1.997-0.269c-0.719,0.236-1.761,0.474-2.151,0.199
			c-0.305-0.215,0.203-1.008,0.812-1.913c0.477-0.748,1.068-1.674,1.51-2.657c0.364-0.84,0.435-1.48,0.214-1.932
			c-0.307-0.625-1.04-0.875-2.321-1.141c-1.282-0.266-3.624,0.977-5.965,2.206c-0.406,0.208-0.726,0.374-0.94,0.482
			c-1.011,0.495-1.313,0.25-2.139-0.946c-0.973-1.402-3.005-0.844-4.64-0.184c-0.821,0.321-1.582,0.748-2.199,1.094
			c-0.624,0.345-1.254,0.7-1.457,0.631c-0.167-0.075-0.534-0.386-0.897-0.704c-0.523-0.458-1.131-0.981-1.636-1.179
			c-0.823-0.36-2.115,0.316-4.079,1.353l-0.672,0.345c-1.679,0.882-3.714,2.101-5.35,3.092l-1.573,0.949
			c-1.227,0.716-2.157,0.378-2.372,0.044c-0.215-0.333,1.656-2.565,1.737-3.776c0.089-1.586-3.08-2.358-5.467-2.558
			c-2.716-0.227-5.031,0.972-7.721,2.69c-4.066,3.244-10.299,4.784-12.62,4.87c0,0-0.189,0.014-0.616-0.062
			c-0.426-0.074-1.354-0.654-1.458-1.072c-0.101-0.399,0.239-0.931,0.492-1.074c0.279-0.123,1.149-0.453,2.143-0.823
			c1.309-0.478,2.786-1.03,3.717-1.455c1.272-0.581,2.356-1.404,2.333-3.533c-0.02-1.781-2.268-2.792-3.752-2.663
			c-1.485,0.129-4,1.589-5.15,2.755c-1.149,1.167-3.23,4.062-3.531,4.361c-0.306,0.303-5.998,1.414-6.075,1.393
			c-0.177,0.007-0.291,0.07-0.302,0.042c0.031-0.1,1.632-1.688,1.895-5.233c0.263-3.544-5.383-5.468-5.395-5.478
			c0.036-0.027,0.067-0.084,0.117-0.143c0.274-0.35,0.806-1.025,1.025-2.439c0.366-2.38-1.382-4.397-3.151-5.489
			c-1.735-1.068-4.574-0.548-5.836-0.129l-0.761,0.254c-1.059,0.373-2.163,0.755-2.778,0.848c-0.111,0.011-0.166,0-0.182-0.014
			c-0.059-0.052-0.027-0.291-0.011-0.468c0.042-0.302,0.083-0.68-0.079-0.979c-0.414-0.792-1.668-0.438-2.71-0.042
			c-0.032,0.013-0.076,0.032-0.121,0.057c-2.059,3.33-8.594,11.772-9.723,12.933c-0.513,0.541-1.709,1.974-2.966,3.518
			c-1.514,1.829-3.067,3.713-3.773,4.429c-0.918,0.91-1.45,2.19-1.333,3.178c0.08,0.592,0.358,1.045,0.799,1.313
			c1.119,0.689,2.104-0.391,3.135-1.528c0.285-0.313,0.564-0.626,0.844-0.903c1.379-1.361,5.819-7.014,8.504-10.807
			c2.183-3.105,4.247-4.703,5.762-5.882c0.245-0.196,0.49-0.388,0.703-0.56c1.406-1.151,4.144-2.338,6.671-2.899
			c2.088-0.469,2.435,0.398,2.865,1.484c0.063,0.137,0.122,0.291,0.181,0.438c0.213,0.506,0.164,1.226-0.141,1.921
			c-0.395,0.868-1.083,1.543-1.864,1.801c-0.563,0.194-1.159,0.344-1.776,0.497c-1.163,0.29-2.35,0.586-3.385,1.165
			c-1.514,0.847-2.938,2.737-2.679,4.448c0.051,0.349,0.219,0.629,0.508,0.843c0.924,0.679,2.908,0.362,4.085,0.166l0.059-0.009
			c1.088-0.166,2.768-1.343,3.997-2.191c0.445-0.306,0.824-0.58,1.063-0.723c0.75-0.431,2.085-0.515,3.531,0.545
			c0.316,0.235,0.49,0.568,0.539,0.994c0.13,1.136-0.727,2.74-1.623,3.833c-1.202,1.431-3.223,1.464-4.981,1.476h-0.328
			c-0.826,0.024-1.84-0.376-2.732-0.74c-1.204-0.469-2.254-0.89-2.757-0.349c-0.808,0.871-1.047,3.106-0.47,4.121
			c0.635,1.098,2.658,2.909,6.156,2.658c2.518-0.2,4.342-1.505,5.554-2.438c0.47-0.373,0.892-0.717,1.104-0.743
			c0.486-0.059,1.238-0.084,3.954-0.638c2.716-0.553,4.313-1.178,4.461-0.945c0,0,1.262,2.902,4.032,3.782
			c2.051,0.65,7.648-1.025,7.893-1.112c0.328-0.104,0.638-0.224,0.937-0.331c0.848-0.305,1.581-0.552,2.336-0.642
			c0.34-0.051,0.796,0.266,1.319,0.662c0.874,0.663,1.951,1.456,3.446,1.322c1.796-0.155,3.652-1.063,5.004-1.758
			c0.478-0.221,0.871-0.433,1.167-0.534c0.638-0.263,0.895,0.033,1.381,0.653c0.212,0.263,0.448,0.576,0.764,0.827
			c0.925,0.794,2.96,0.475,6.23-1.012c1.764-0.814,3.509-1.835,4.894-2.67c0.842-0.49,1.566-0.904,2.065-1.165
			c0.4-0.175,0.582-0.214,0.642-0.22c-0.012,0.099-0.128,0.407-0.821,1.166c-0.97,1.054-1.438,1.865-1.662,2.817
			c-0.057,0.232-0.019,0.453,0.119,0.603c0.334,0.409,1.2,0.402,1.949,0.385c0.848-0.009,1.196-0.343,1.96-1.077l0.483-0.453
			c1.108-1.039,4.737-3.332,6.183-3.991c0.946-0.424,1.296-0.27,1.403-0.168c0.173,0.137,0.131,0.42,0.086,0.556
			c-0.102,0.373-0.981,1.344-1.647,2.039c-0.737,0.785-1.125,1.203-1.17,1.406c-0.042,0.232,0.036,0.474,0.236,0.739
			c0.375,0.439,1.015,0.717,1.734,0.698c0.892-0.009,1.68-0.665,2.686-1.485c0.471-0.379,0.997-0.803,1.584-1.215
			c1.459-1.023,3.375-2.096,4.526-2.729l0.776-0.439c0.307-0.185,0.567-0.235,0.671-0.152c0.156,0.088,0.179,0.422,0.087,0.885
			c-0.075,0.334-0.239,0.658-0.441,1.039c-0.308,0.624-0.699,1.385-0.821,2.501c-0.179,1.858,1.6,2.643,3.273,2.787
			c0.797,0.068,2.134-0.326,3.47-0.991C109.418,23.046,110.29,22.196,109.92,21.176L109.92,21.176z"/>
	</g>
	<path fill="#51C6DB" d="M155.34,23.727h-4.2c0.149-1.35,0.2-3.5,0.2-5.601v-1.85c0-2.1-0.051-4.401-0.3-5.601h2.399
		c0.9,0,1.351,0.3,1.5,0.9c1.15-0.85,2.4-1.2,3.651-1.2c4.5,0,5.051,2.7,5.051,4.701v3.65c0,2.05,0.1,3.9,0.25,5h-2.501
		c-1.149,0-1.7-0.699-1.7-1.85v-5.301c0-2.1-0.2-3.701-2.801-3.701c-0.6,0-1.199,0.1-1.699,0.3v4.701
		C155.191,19.526,155.191,22.377,155.34,23.727L155.34,23.727z M142.939,10.675h4.2c-0.149,1.351-0.199,3.5-0.199,5.601v1.85
		c0,2.101,0.1,4.401,0.3,5.601h-2.4c-0.9,0-1.351-0.3-1.5-0.899c-1.15,0.85-2.4,1.2-3.651,1.2c-4.5,0-5.05-2.701-5.05-4.701v-3.65
		c0-2.051-0.101-3.901-0.25-5h2.5c1.15,0,1.7,0.7,1.7,1.851v5.3c0,2.1,0.2,3.7,2.8,3.7c0.601,0,1.2-0.1,1.7-0.3v-4.7
		C143.088,14.875,143.039,12.026,142.939,10.675L142.939,10.675z M131.038,13.775c-0.75-0.7-2.101-1.1-3.5-1.1
		c-1.001,0-2.201,0.149-2.201,1.3c0,0.85,1,1.25,2.501,1.8c1.75,0.65,3.801,1.5,3.801,3.951c0,3.9-4.15,4.4-6.102,4.4
		c-1.1,0-2.3-0.1-3.2-0.35c-0.9-0.251-1.101-0.65-1.101-1.851v-1.451c1.001,0.7,2.601,1.05,3.9,1.05c1.601,0,2.401-0.449,2.401-1.45
		c0-0.951-0.851-1.3-3.101-2.15c-1.551-0.601-3.201-1.4-3.201-3.65c0-3.3,3.751-4.151,6.001-4.151c1.351,0,2.45,0.25,3.15,0.55
		c0.6,0.3,0.65,0.65,0.65,1.45V13.775L131.038,13.775z"/>
	<path fill="#51C6DB" d="M182.246,17.126c0,3,1.049,4.351,3.1,4.351c2,0,3-1.35,3-4.351s-1-4.4-3-4.4
		C183.294,12.726,182.246,14.125,182.246,17.126L182.246,17.126z M192.196,17.076c0,4.351-2.5,7.051-7.001,7.051
		c-4.5,0-6.802-2.45-6.802-6.901c0-4.401,2.451-6.951,6.952-6.951C189.845,10.275,192.196,12.676,192.196,17.076L192.196,17.076z
		 M175.744,10.675c0.7,0,1.801-0.05,2.351-0.15c-0.101,0.4-0.4,1.45-0.601,1.9c-0.351,0.75-0.8,1-2.551,1h-1.5v4.451
		c0,1.649,0.05,4.5,0.2,5.85h-4.251c0.15-1.35,0.2-4.201,0.2-5.85v-4.451h-1.299c-1.151,0-2.151,0.15-2.651,0.451v-1.35
		c0-1.15,0.2-1.851,1.851-1.851H175.744L175.744,10.675z"/>
	<path fill="#51C6DB" d="M216.749,19.926v0.3c0,1,0.051,2.65,0.2,3.5h-4.251c0.151-0.85,0.201-2.551,0.201-3.5v-0.3
		c0-0.55-0.15-1.101-0.601-2c-0.95-1.9-3.051-5.551-4.851-7.201c0.7-0.101,2.001-0.15,2.801-0.15c1.649,0,2.15,0.55,2.55,1.199
		c0.351,0.55,1.75,3.301,2.2,4.451c0.551-1.3,1.65-3.601,2.151-4.401c0.399-0.6,0.949-1.25,2.35-1.25c0.65,0,1.699,0.049,2.501,0.15
		c-1.301,1.149-3.751,5.2-4.751,7.05C216.799,18.676,216.749,19.126,216.749,19.926L216.749,19.926z M206.097,24.477
		c-1.6,0-1.949-0.6-2.95-2.05c-0.55-0.8-2.301-3.75-2.6-4.35c-0.15-0.301-0.2-0.551,0.1-0.701c1.3-0.75,1.6-1.55,1.6-2.45
		c0-1.05-0.399-1.951-1.899-1.951c-0.45,0-0.851,0.05-1.151,0.151v4.75c0,1.649,0.051,4.5,0.201,5.85h-4.101
		c0.15-1.3,0.2-3.5,0.2-5.601v-1.85c0-2.1-0.05-4.401-0.3-5.601c1.95,0,4.549-0.1,5.8-0.1c2.2,0,5.101,0.45,5.101,3.75
		c0,1.35-0.6,2.45-1.7,3.151c-0.199,0.149-0.199,0.25,0,0.55c1.401,2.1,3.101,4.45,4.651,6.101
		C208.498,24.276,207.048,24.477,206.097,24.477L206.097,24.477z"/>
</g>
</svg>
