<?xml version="1.0" encoding="utf-8"?>
<!-- Generator: Adobe Illustrator 20.1.0, SVG Export Plug-In . SVG Version: 6.00 Build 0)  -->
<svg version="1.1" id="Layer_1" xmlns="http://www.w3.org/2000/svg" xmlns:xlink="http://www.w3.org/1999/xlink" x="0px" y="0px"
	 viewBox="0 0 375 362.1" style="enable-background:new 0 0 375 362.1;" xml:space="preserve">
<style type="text/css">
	.st0{fill:#FFFFFF;}
	.st1{fill:#699BAB;}
</style>
<path class="st0" d="M0,99.6l37.5,206.2h46.9c8.6-11.4,22.1-18.7,37.5-18.7s28.9,7.3,37.5,18.7h56.2c8.6-11.4,22.1-18.7,37.5-18.7
	s28.9,7.3,37.5,18.7h46.9L375,99.6H0z"/>
<circle class="st0" cx="121.9" cy="334" r="28.1"/>
<circle class="st0" cx="253.1" cy="334" r="28.1"/>
<path class="st1" d="M309.3,56.3c-3.4,0-6.4,0.6-9.4,1.9v-1.9c0-20.6-16.9-37.5-37.5-37.5c-6.4,0-12.2,1.5-17.4,4.1
	C229.8,8.7,209.8,0,187.4,0s-42.7,8.6-57.7,23.1c-5.1-2.8-11.1-4.3-17.2-4.3C91.7,18.8,75,35.7,75,56.3v1.9c-3-1.3-6-1.9-9.4-1.9
	c-12.2,0-22.7,7.9-26.4,18.7h296.6C332,64.2,321.5,56.3,309.3,56.3z"/>
</svg>
