<?xml version="1.0" encoding="utf-8"?>
<!-- Generator: Adobe Illustrator 20.1.0, SVG Export Plug-In . SVG Version: 6.00 Build 0)  -->
<svg version="1.1" id="Layer_1" xmlns="http://www.w3.org/2000/svg" xmlns:xlink="http://www.w3.org/1999/xlink" x="0px" y="0px"
	 viewBox="0 0 260.1 88.1" style="enable-background:new 0 0 260.1 88.1;" xml:space="preserve">
<style type="text/css">
	.st0{fill:#FFFFFF;}
	.st1{fill:#ACDEDC;}
	.st2{fill:#6A9BAC;}
</style>
<path class="st0" d="M167.5,59.1h2.6v25.8h-1.9v3.3h37.4h3.3h3.1h44.9h3.3v-3.3h-3.3V10.6h3.3V7.3h-3.3h-48h-3.3v3.3h3.3V52h-37.5
	l-3.9,5.4V59.1L167.5,59.1z M247.6,81.6v-4.8h4.8v4.8H247.6L247.6,81.6z M247.6,73.8V69h4.8v4.8H247.6L247.6,73.8z M247.6,65.9v-4.8
	h4.8v4.8H247.6L247.6,65.9z M247.6,58.1v-4.8h4.8v4.8H247.6L247.6,58.1z M247.6,50.2v-4.8h4.8v4.8H247.6L247.6,50.2z M247.6,42.4
	v-4.8h4.8v4.8H247.6L247.6,42.4z M247.6,34.5v-4.8h4.8v4.8H247.6L247.6,34.5z M247.6,26.7v-4.8h4.8v4.8H247.6L247.6,26.7z
	 M247.6,18.8V14h4.8v4.8H247.6L247.6,18.8z M239,76.8h4.8v4.8H239V76.8z M239,69h4.8v4.8H239V69z M239,61.1h4.8v4.8H239V61.1z
	 M239,53.3h4.8v4.8H239V53.3z M239,45.4h4.8v4.8H239V45.4z M239,37.6h4.8v4.8H239V37.6z M239,29.7h4.8v4.8H239V29.7z M239,21.9h4.8
	v4.8H239V21.9z M239,14h4.8v4.8H239V14z M230.4,76.8h4.8v4.8h-4.8V76.8z M230.4,69h4.8v4.8h-4.8V69z M230.4,61.1h4.8v4.8h-4.8V61.1z
	 M230.4,53.3h4.8v4.8h-4.8V53.3z M230.4,45.4h4.8v4.8h-4.8V45.4z M230.4,37.6h4.8v4.8h-4.8V37.6z M230.4,29.7h4.8v4.8h-4.8V29.7z
	 M230.4,21.9h4.8v4.8h-4.8V21.9z M230.4,14h4.8v4.8h-4.8V14z M221.9,76.8h4.8v4.8h-4.8V76.8z M221.9,69h4.8v4.8h-4.8V69z
	 M221.9,61.1h4.8v4.8h-4.8V61.1z M221.9,53.3h4.8v4.8h-4.8V53.3z M221.9,45.4h4.8v4.8h-4.8V45.4z M221.9,37.6h4.8v4.8h-4.8V37.6z
	 M221.9,29.7h4.8v4.8h-4.8V29.7z M221.9,21.9h4.8v4.8h-4.8V21.9z M221.9,14h4.8v4.8h-4.8V14z M213.3,76.8h4.8v4.8h-4.8V76.8z
	 M213.3,69h4.8v4.8h-4.8V69z M213.3,61.1h4.8v4.8h-4.8V61.1z M213.3,53.3h4.8v4.8h-4.8V53.3z M213.3,45.4h4.8v4.8h-4.8V45.4z
	 M213.3,37.6h4.8v4.8h-4.8V37.6z M213.3,29.7h4.8v4.8h-4.8V29.7z M213.3,21.9h4.8v4.8h-4.8V21.9z M213.3,14h4.8v4.8h-4.8V14z
	 M198.9,72.2h5v9.4h-5V72.2z M198.9,58.8h5v9.4h-5V58.8z M187.9,72.2h5v9.4h-5L187.9,72.2z M187.9,58.8h5v9.4h-5L187.9,58.8z
	 M176.9,72.2h5v9.4h-5V72.2z M176.9,58.8h5v9.4h-5V58.8z"/>
<g>
	<circle class="st1" cx="169.8" cy="45" r="1.9"/>
	<circle class="st1" cx="169.8" cy="40.6" r="1.9"/>
	<circle class="st1" cx="169.8" cy="49.4" r="1.9"/>
	<path class="st1" d="M175.5,45.6c0.7,0,1.3-0.6,1.3-1.3s-0.6-1.3-1.3-1.3h-0.6v-1.3c0-0.3,0.3-0.6,0.6-0.6c0.7,0,1.3-0.6,1.3-1.3
		s-0.6-1.3-1.3-1.3h-0.6v-0.8c0.4-0.2,0.6-0.6,0.6-1.1c0-0.7-0.6-1.3-1.3-1.3h-3.2v-1.9h3.2c0.7,0,1.3-0.6,1.3-1.3
		c0-0.7-0.6-1.3-1.3-1.3h-8.9c-7,0-12.7,5.7-12.7,12.7v30.3c-1.5,0.5-2.5,1.9-2.5,3.6v4c-1.5,0.5-2.5,1.9-2.5,3.6c0,0.1,0,0.1,0,0.2
		c0,0.1,0,0.1,0,0.2c-0.7,0-1.3,0.6-1.3,1.3s0.6,1.3,1.3,1.3h12.7c0.7,0,1.3-0.6,1.3-1.3s-0.6-1.3-1.3-1.3c0-0.1,0-0.1,0-0.2
		c0-0.1,0-0.1,0-0.2c0-1.6-1-3-2.4-3.5c0,0-0.1-0.1-0.1-0.1v-4c0-1.7-1.1-3.1-2.5-3.6V43.7c0-5.6,4.6-10.1,10.1-10.1h3.2v1.9h-3.2
		c-0.7,0-1.3,0.6-1.3,1.3c0,0.5,0.3,0.9,0.6,1.1v0.8h-0.6c-0.7,0-1.3,0.6-1.3,1.3s0.6,1.3,1.3,1.3c0.3,0,0.6,0.3,0.6,0.6v1.3h-0.6
		c-0.7,0-1.3,0.6-1.3,1.3s0.6,1.3,1.3,1.3c0.3,0,0.6,0.3,0.6,0.6v1.3h-0.6c-0.7,0-1.3,0.6-1.3,1.3c0,0.7,0.6,1.3,1.3,1.3
		c0.3,0,0.6,0.3,0.6,0.6v2.5c0,0.7,0.6,1.3,1.3,1.3h7.6c0.7,0,1.3-0.6,1.3-1.3v-2.5c0-0.3,0.3-0.6,0.6-0.6c0.7,0,1.3-0.6,1.3-1.3
		c0-0.7-0.6-1.3-1.3-1.3h-0.6v-1.3C174.9,45.9,175.2,45.6,175.5,45.6z M154,76.4c0.7,0,1.3,0.6,1.3,1.3v3.8h-2.5v-3.8
		C152.7,76.9,153.3,76.4,154,76.4z M150.2,85.6c0-0.1,0-0.1,0-0.2c0-0.1,0-0.1,0-0.2c0-0.7,0.6-1.3,1.3-1.3h5.1
		c0.7,0,1.3,0.6,1.3,1.3c0,0.1,0,0.1,0,0.2c0,0.1,0,0.1,0,0.2H150.2z M172.4,52h-5.1V38h5.1V52z"/>
</g>
<g>
	<path class="st0" d="M70.7,84.3v2.2c0,0.9,0.7,1.6,1.6,1.6h70.3c0.9,0,1.6-0.7,1.6-1.6v-2.2c0-0.9-0.7-1.7-1.6-1.7H141V28.9
		c0-0.2-0.1-0.4-0.2-0.6l-6.9-9.5c-0.3-0.6-0.9-0.6-1.3,0l-6.9,9.5c-0.1,0.1-0.2,0.4-0.2,0.6v53.7h-3V14c0-0.2-0.1-0.4-0.2-0.5
		L108.3,0.4c-0.5-0.5-1.2-0.5-1.7,0L92.4,13.5c-0.1,0.1-0.2,0.4-0.2,0.5v68.6h-3V28.9c0-0.2-0.1-0.4-0.2-0.6l-6.9-9.5
		c-0.4-0.6-0.9-0.6-1.3,0L74,28.3c-0.1,0.1-0.2,0.4-0.2,0.6v53.7h-1.6C71.4,82.6,70.7,83.4,70.7,84.3z M130.6,31.1h5.5v5.5h-5.5
		V31.1z M130.6,43.3h5.5v5.5h-5.5V43.3z M130.6,55.5h5.5V61h-5.5V55.5z M130.6,67.7h5.5v5.5h-5.5V67.7z M112.3,17h5.5v5.5h-5.5V17z
		 M112.3,29.2h5.5v5.5h-5.5V29.2z M112.3,41.4h5.5v5.5h-5.5V41.4z M112.3,53.6h5.5v5.5h-5.5V53.6z M112.3,65.8h5.5v5.5h-5.5V65.8z
		 M104.3,73.3c0-0.3,0.3-0.6,0.6-0.6h5.4c0.3,0,0.6,0.3,0.6,0.6l0,5.5c0,0.3-0.3,0.6-0.6,0.6h-5.4c-0.3,0-0.6-0.3-0.6-0.6V73.3z
		 M97.1,17h5.5v5.5h-5.5V17z M97.1,29.2h5.5v5.5h-5.5V29.2z M97.1,41.4h5.5v5.5h-5.5V41.4z M97.1,53.6h5.5v5.5h-5.5V53.6z
		 M97.1,65.8h5.5v5.5h-5.5V65.8z M78.8,31.1h5.5v5.5h-5.5V31.1z M78.8,43.3h5.5v5.5h-5.5V43.3z M78.8,55.5h5.5V61h-5.5V55.5z
		 M78.8,67.7h5.5v5.5h-5.5V67.7z"/>
</g>
<path class="st2" d="M70.2,79h-0.7c0,0,0,0,0,0v0c0-0.2-0.1-0.3-0.3-0.3l-1.4-0.2v-0.8h1c0.2,0,0.3-0.2,0.3-0.3v-1.4
	c0-0.2-0.2-0.3-0.3-0.3h-1c0-1.3-0.9-2.5-2.1-2.8v-1c0-0.2-0.2-0.3-0.3-0.3h-1c-0.2,0-0.3,0.2-0.3,0.3v1c-1.2,0.4-2.1,1.5-2.1,2.8
	h-1c-0.2,0-0.3,0.2-0.3,0.3v1.4c0,0.2,0.2,0.3,0.3,0.3h1v0.8l-1.4,0.2c-0.2,0-0.3,0.2-0.3,0.3v0c0,0,0,0,0,0h-0.7
	c-0.2,0-0.3,0.2-0.3,0.3V80c0,0.2,0.2,0.3,0.3,0.3h0.7c0,0,0,0,0,0v0c0,0.2,0.1,0.3,0.3,0.3l1.4,0.2v3.3h-1c-0.2,0-0.3,0.2-0.3,0.3
	v1.4c0,0.2,0.2,0.3,0.3,0.3h8c0.2,0,0.3-0.2,0.3-0.3v-1.4c0-0.2-0.2-0.3-0.3-0.3h-1v-3.3l1.4-0.2c0.2,0,0.3-0.2,0.3-0.3v0
	c0,0,0,0,0,0h0.7c0.2,0,0.3-0.2,0.3-0.3v-0.7C70.5,79.1,70.4,79,70.2,79z"/>
<path class="st0" d="M51,7.3H5.1c-2.8,0-5.1,2.3-5.1,5V88h20.3V72.9h15.2V88h20.5V12.3C56.1,9.6,53.8,7.3,51,7.3z M10.2,62.8H5.1
	V52.7h5.1V62.8z M10.2,47.6H5.1V37.6h5.1V47.6z M10.2,32.5H5.1V22.4h5.1V32.5z M20.3,62.8h-5.1V52.7h5.1V62.8z M20.3,47.6h-5.1V37.6
	h5.1V47.6z M20.3,32.5h-5.1V22.4h5.1V32.5z M30.5,62.8h-5.1V52.7h5.1V62.8z M30.5,47.6h-5.1V37.6h5.1V47.6z M30.5,32.5h-5.1V22.4
	h5.1V32.5z M40.6,62.8h-5.1V52.7h5.1V62.8z M40.6,47.6h-5.1V37.6h5.1V47.6z M40.6,32.5h-5.1V22.4h5.1V32.5z M50.8,62.8h-5.1V52.7
	h5.1V62.8z M50.8,47.6h-5.1V37.6h5.1V47.6z M50.8,32.5h-5.1V22.4h5.1V32.5z"/>
</svg>
