<?xml version="1.0" encoding="utf-8"?>
<!-- Generator: Adobe Illustrator 20.1.0, SVG Export Plug-In . SVG Version: 6.00 Build 0)  -->
<svg version="1.1" id="Layer_1" xmlns="http://www.w3.org/2000/svg" xmlns:xlink="http://www.w3.org/1999/xlink" x="0px" y="0px"
	 viewBox="0 0 50 50" style="enable-background:new 0 0 50 50;" xml:space="preserve">
<path style="fill:#FFFFFF;" d="M39.8,1H10.2C5.1,1,1,5.1,1,10.2v29.6c0,5.1,4.1,9.2,9.2,9.2H19c0-2.8,0-11,0-18h-5v-6h5v-4.3
	c0-3,1.1-7.8,7.9-7.8l6.1,0v6c0,0-4.6,0-5.3,0C27,19,26,19.5,26,20.9V25h7l-0.7,6H26c0,7,0,15.2,0,18h13.8c5.1,0,9.2-4.1,9.2-9.2
	V10.2C49,5.1,44.9,1,39.8,1z"/>
</svg>
