<?xml version="1.0" encoding="utf-8"?>
<!-- Generator: Adobe Illustrator 20.1.0, SVG Export Plug-In . SVG Version: 6.00 Build 0)  -->
<svg version="1.1" id="Layer_1" xmlns="http://www.w3.org/2000/svg" xmlns:xlink="http://www.w3.org/1999/xlink" x="0px" y="0px"
	 viewBox="0 0 50 50" style="enable-background:new 0 0 50 50;" xml:space="preserve">
<g>
	<path style="fill:#FFFFFF;" d="M25,0.5C11.5,0.5,0.5,11.5,0.5,25s11,24.5,24.5,24.5s24.5-11,24.5-24.5S38.5,0.5,25,0.5z M31.2,25
		H26c0,6,0,14,0,14h-6c0,0,0-8,0-14h-3v-5h3v-3.1c0-2.3,1.1-5.9,6.2-5.9l4.8,0v4c0,0-2.7,0-3.2,0S26,15.9,26,17v3h5.8L31.2,25z"/>
</g>
</svg>
