<?xml version="1.0" encoding="utf-8"?>
<!-- Generator: Adobe Illustrator 20.1.0, SVG Export Plug-In . SVG Version: 6.00 Build 0)  -->
<svg version="1.1" id="Layer_1" xmlns="http://www.w3.org/2000/svg" xmlns:xlink="http://www.w3.org/1999/xlink" x="0px" y="0px"
	 viewBox="0 0 254.2 128.4" style="enable-background:new 0 0 254.2 128.4;" xml:space="preserve">
<style type="text/css">
	.st0{fill:#6A9BAC;}
	.st1{fill:#FFFFFF;}
	.st2{fill:#ACDEDC;}
</style>
<g>
	<path class="st0" d="M76.9,35.7c-1,0-1.9-0.5-2.5-1.3c-0.2,0-0.4,0.1-0.7,0.1c-0.9,0-1.8-0.3-2.5-0.9c-0.4,0.1-0.9,0.2-1.3,0.2
		c-1.6,0-2.9-0.7-3.6-1.6c-0.3,0-0.6,0.1-0.9,0.1c-0.6,0.7-1.7,1.2-2.9,1.2c-1.3,0.7-2.8,1.1-4.5,1.1c-1,0-1.9-0.1-2.8-0.4
		c-1.4,0.2-3.1,0.3-4.8,0.3c-1.5,0-2.9-0.1-4.3-0.3c-0.8,0.2-1.7,0.3-2.5,0.3c-1.6,0-3-0.3-4.2-1c-1.3,0.6-2.8,1-4.4,1
		c-4.2,0-7.5-2.2-7.5-5.2s3.3-5.2,7.5-5.2c0.2,0,0.4,0,0.6,0c0.8-0.5,1.7-0.8,2.7-1c0.3-2.2,2.5-3.9,5.2-3.9c1,0,1.9,0.2,2.6,0.6
		c0.8-0.4,1.6-0.6,2.3-0.6c2.2,0,4.3,1.6,5.2,4c0.6,0.1,1.1,0.3,1.6,0.5c1.4-1.9,3.9-2.9,6.7-2.9c3.8,0,7,2.1,7.6,4.9
		c0.8,0.2,1.7,0.5,2.3,1c0.6-0.4,1.3-0.6,1.9-0.6c2.1,0,3.9,1.8,4,4c1.3,0.3,2.2,1.5,2.2,2.7C79.9,34.4,78.5,35.7,76.9,35.7z
		 M75.2,32.5l0.3,0.8c0.2,0.5,0.8,0.9,1.4,0.9c0.8,0,1.5-0.6,1.5-1.3s-0.6-1.3-1.5-1.3l0,0h-1l0.1-0.9c0-0.2,0-0.3,0-0.4
		c0-1.5-1.1-2.5-2.3-2.5c-0.5,0-1.1,0.2-1.5,0.6l-0.6,0.5l-0.5-0.5c-0.5-0.4-1.4-0.9-2.6-1.2l-0.6-0.1v-0.6c-0.2-2.2-2.8-4-6.1-4
		c-2.5,0-4.9,1.1-5.7,2.7L55.6,26L55,25.6c-0.6-0.4-1.4-0.6-2.1-0.8l-0.5-0.1l-0.1-0.5c-0.6-1.9-2-3.3-3.7-3.3
		c-0.7,0-1.3,0.2-1.9,0.6l-0.5,0.4l-0.4-0.3c-0.7-0.4-1.4-0.6-2.2-0.6c-1.9,0-3.6,1.3-3.6,2.9c0,0,0,0,0,0.1v0.8h-0.8
		c-1.2,0.1-2.1,0.5-2.9,1l-0.2,0.1h-0.3c-0.3,0-0.5,0-0.8,0c-3.2,0-5.9,1.7-5.9,3.6s2.7,3.6,5.9,3.6c1.5,0,2.8-0.3,4-1l0.4-0.2
		l0.4,0.3c1,0.6,2.3,0.9,3.7,0.9c0.8,0,1.6-0.1,2.2-0.3h0.2h0.2c1.3,0.2,2.7,0.3,4.2,0.3c1.8,0,3.4-0.1,4.9-0.4h0.2l0.2,0.1
		c0.8,0.3,1.7,0.4,2.5,0.4c1.5,0,2.8-0.4,3.8-1l0.2-0.1h0.3c1.1,0,1.8-0.4,1.9-0.7l0.2-0.4h0.5c0.6,0,1.2-0.1,1.8-0.2l0.7-0.1
		l0.2,0.7c0.2,0.6,1.1,1.1,2.3,1.1c0.4,0,0.9-0.1,1.3-0.2l0.5-0.2l0.4,0.4c0.7,0.7,1.6,1,2.4,0.6L75.2,32.5z"/>
	<path class="st0" d="M94,30c-2.7,0-5-2.2-5-5.1c0-0.5,0.1-1,0.2-1.5c-2-0.7-3.5-2.5-3.5-4.8c0-0.3,0-0.7,0.1-1
		c-1.2,0.3-2.5,0.5-4,0.5c-2.8,0-5.3-0.6-6.4-1.7c-1.1,0.1-2.1,0.2-3.2,0.2c-3.1,0-5.9-0.4-8.2-1.2c-1.6,0.9-3.7,1.4-6.1,1.5
		c-1.2,0.7-2.8,1.1-4.5,1.1c-1.3,0-2.4-0.2-3.5-0.6c-0.4,0-0.9,0.1-1.3,0.1c-3.4,0-5.9-1.3-6.2-3.1c-2.7-0.5-4.6-1.9-4.6-3.6
		c0-2.1,2.8-3.8,6.7-3.8c0.9,0,1.7,0.1,2.4,0.2c1-1.4,2.7-2.1,4.7-2.1c1.4,0,2.7,0.5,3.7,1.3c1.3-0.4,2.7-0.6,4.3-0.6
		c2.8,0,5.5,0.7,6.9,1.8c0.6-0.1,1.1-0.2,1.7-0.3c0-0.1,0-0.1,0-0.2c0-2.2,2-4.1,4.6-4.1c1,0,1.9,0.3,2.7,0.8
		c0.4-0.2,1.2-0.5,1.9-0.5c1.9,0,3.4,1.5,3.9,3.6c0.5-0.1,1-0.1,1.5-0.1c2.5,0,4.7,1,5.6,2.4c0.3,0,0.7-0.1,1-0.1
		c3.4,0,6,1.7,6.5,3.9c2.1,0.4,3.8,1.9,3.8,3.8c0,0.8-0.3,1.6-0.8,2.1c0.5,0.8,0.8,1.8,0.8,2.8s-0.3,2.1-0.9,2.9c0,0.1,0,0.2,0,0.2
		C98.9,27.8,96.7,30,94,30z M86.2,16.1l0.3,0.1c0.2,0.1,0.4,0.2,0.6,0.2l0.9,0.3l-0.4,0.8c-0.2,0.4-0.3,0.9-0.3,1.4
		c0,1.8,1.4,3.2,3.1,3.4l1.1,0.1l-0.5,1c-0.3,0.5-0.4,1.1-0.4,1.7c0,1.9,1.5,3.5,3.4,3.5s3.4-1.6,3.4-3.5c0-0.1,0-0.3,0-0.4v-0.3
		l0.2-0.3c0.5-0.6,0.8-1.4,0.8-2.1c0-0.9-0.3-1.8-0.9-2.3l-0.8-0.6l0.7-0.6c0.5-0.4,0.8-1,0.8-1.6c0-1.3-1.4-2.2-3-2.3h-0.8v-0.8
		c0-1.7-2.3-3-5.1-3c-0.4,0-0.9,0-1.3,0.1l-0.6,0.1l-0.3-0.6c-0.4-1-2.1-1.9-4.5-1.9c-0.7,0-1.4,0.1-1.9,0.3l-1,0.3l-0.1-1
		c-0.1-1.7-1.2-3-2.4-3c-0.6,0-1.1,0.3-1.6,0.8l-0.6,0.6l-0.6-0.6c-0.6-0.5-1.4-0.9-2.2-0.9c-1.7,0-3,1.1-3,2.5c0,0.2,0,0.4,0.1,0.7
		l0.3,1l-1,0.1c-1,0.1-1.9,0.2-2.7,0.4l-0.4,0.1l-0.3-0.3c-0.9-0.8-3.1-1.7-6.1-1.7c-1.6,0-3,0.2-4.2,0.6l-0.2,0.2l-0.4-0.3
		c-0.8-0.7-1.9-1.1-3-1.1c-1.6,0-3,0.8-3.6,1.9l-0.3,0.6L47,9.3C46.2,9.1,45.3,9,44.4,9c-2.9,0-5.1,1.2-5.1,2.1
		c0,0.8,1.5,1.9,3.9,2.1l1,0.1l-0.3,1c0,0.1,0,0.1,0,0.2c0,0.7,1.9,1.8,4.7,1.8c0.5,0,0.9,0,1.3-0.1h0.2l0.2,0.1
		c0.9,0.4,1.9,0.6,3,0.6c1.5,0,2.9-0.4,3.8-1l0.2-0.1h0.2c2.3-0.1,4.6-0.6,5.8-1.5l0.3-0.2l0.4,0.1c2,0.8,5,1.2,8,1.2
		c1.2,0,2.3-0.1,3.4-0.2h0.4l0.3,0.3c0.6,0.7,2.7,1.4,5.6,1.4c1.6,0,3-0.2,4.2-0.6L86.2,16.1z"/>
	<path class="st0" d="M22.2,19.5c-3,0-5.7-0.6-7.4-1.5c-0.6,0.1-1.3,0.1-1.9,0.1c-4.4,0-7.6-1.7-7.6-3.9c0-2.1,3-3.8,7.1-3.9
		c0.7-1.9,2.9-3.3,5.6-3.3c2,0,3.8,0.8,4.9,2.1C23.6,9.1,24.4,9,25.2,9c2.3,0,5,0.6,5.8,1.9c0.1,0,0.2,0,0.3,0c2.1,0,3.9,1.9,3.9,4
		s-1.8,4-3.9,4c-0.8,0-1.6-0.3-2.2-0.7C27.5,19,25,19.5,22.2,19.5z M15.2,16.4l0.3,0.2c1.4,0.9,4,1.4,6.8,1.4c2.7,0,5.3-0.5,6.6-1.4
		l0.5-0.3l0.4,0.4c0.4,0.4,1,0.7,1.6,0.7c1.3,0,2.3-1.1,2.3-2.4s-1.1-2.4-2.3-2.4c-0.2,0-0.4,0-0.6,0.1l-0.9,0.2l-0.2-0.9
		c-0.1-0.5-1.8-1.5-4.6-1.5c-0.9,0-1.8,0.1-2.5,0.3L22,10.9l-0.3-0.5c-0.7-1.2-2.2-1.9-3.9-1.9c-2,0-3.9,1.2-4.2,2.7l0.1,0.7h-0.7
		l0,0c-3.7,0-6,1.4-6,2.3s2.3,2.3,6,2.3c0.7,0,1.4,0,1.9-0.1L15.2,16.4z"/>
</g>
<g>
	<polygon class="st1" points="141.4,58.3 137.7,58.3 137.7,80.5 141.4,82.1 	"/>
	<polygon class="st1" points="134,58.3 130.3,58.3 130.3,77.2 134,78.8 	"/>
	<polygon class="st1" points="82.4,72 104.8,81 104.5,80.4 104.5,51 108.2,51 108.2,43.6 78.7,43.6 78.7,51 82.4,51 	"/>
	<polygon class="st1" points="49.3,80.4 47.5,84.1 71.4,84.1 71.4,51 75.1,51 75.1,43.6 45.6,43.6 45.6,51 49.3,51 	"/>
	<path class="st1" d="M251.3,58.8l-34.5,15.8V60.2l1.2-0.6l-0.5-1.1l-29.6,13.5V43.7c0-2.6-2.2-5-5-5h-12.9c-2.6,0-5,2.2-5,5v5
		c-5.1,0.8-9,5-9.4,10.1v2.4v13.1h-3.1c-1.9,0-3.5,1.5-3.5,3.5v17.9h-1.8v29h-2.1v-37l-33.2-14.7v14.7L75.1,73.1v14.7H45.6h-3.7
		v36.9h-3.7v3.7h109.1h1.6h34h14.3v-7.8c0-3.8,3-6.8,6.8-6.8s6.8,3,6.8,6.8v7.8h12.8v-7.8c0-3.8,3-6.8,6.8-6.8s6.8,3,6.8,6.8v7.8
		h13.3V74.6v-5.9v-8.4l1.2-0.5L251.3,58.8z M78.7,124.7H49.3V110h29.5L78.7,124.7L78.7,124.7z M104.5,117.3h-7.4v-7.4h7.4V117.3z
		 M104.5,106.3h-7.4v-7.4h7.4V106.3z M115.6,117.3h-7.4v-7.4h7.4V117.3z M115.6,106.3h-7.4v-7.4h7.4V106.3z M126.7,117.3h-7.4v-7.4
		h7.4V117.3z M126.7,106.3h-7.4v-7.4h7.4V106.3z M137.7,117.3h-7.4v-7.4h7.4V117.3z M137.7,106.3h-7.4v-7.4h7.4V106.3z M152.1,77.7
		c0-0.2,0.1-0.4,0.4-0.4h3.1v18.3h-3.5V77.7z M160.7,110.3h-7.6v-4.9h7.7L160.7,110.3L160.7,110.3z M170.3,110.3h-7.7v-4.9h7.7
		V110.3z M179.6,110.3h-7.7v-4.9h7.7V110.3z M185,73.6l-1.9,1v21.1h-4.9V61.2l-0.2-2.3c-0.4-5.4-4.5-9.6-9.8-10.2v-5
		c0-1.1,0.8-1.9,1.9-1.9h13c1.1,0,1.9,0.8,1.9,1.9V73.6z M202.8,103.8h-7v-6.9h7V103.8z M202.8,94.7h-7v-7h7V94.7z M211.4,103.8h-7
		v-6.9h7V103.8z M211.4,94.7h-7v-7h7V94.7z M220,103.8h-6.9v-6.9h6.9V103.8z M220,94.7h-6.9v-7h6.9V94.7z M228.8,103.8h-6.9v-6.9
		h6.9V103.8z M228.8,94.7h-6.9v-7h6.9V94.7z M237.4,103.8h-6.9v-6.9h6.9V103.8z M237.4,94.7h-6.9v-7h6.9V94.7z"/>
</g>
<path class="st2" d="M45,104.1H5c-0.5,0-0.9,0.4-0.9,0.9v7.6l0,0v2.8c0,0.5,0.4,0.9,0.9,0.9h6v10.4H9.4c-0.5,0-0.9,0.4-0.9,0.9
	s0.4,0.9,0.9,0.9h5.3c0.5,0,0.9-0.4,0.9-0.9s-0.4-0.9-0.9-0.9h-1.9v-10.4h24.3v10.4h-1.8c-0.5,0-0.9,0.4-0.9,0.9s0.4,0.9,0.9,0.9
	h5.3c0.5,0,0.9-0.4,0.9-0.9s-0.4-0.9-0.9-0.9h-1.8v-10.4H45c0.5,0,0.9-0.4,0.9-0.9v-10.4C45.9,104.4,45.5,104.1,45,104.1z M44.1,107
	l-7.5,7.5h-2.7l8.7-8.7h1.6V107z M23.4,114.5l8.7-8.7h8l-8.7,8.7H23.4z M18.2,114.5l8.7-8.7h2.7l-8.7,8.7H18.2z M10.6,105.8
	l-4.7,4.7v-4.7H10.6z M5.9,112.9l7.1-7.1h2.7L7,114.5H5.9V112.9z M9.5,114.5l8.7-8.7h6.2l-8.7,8.7H9.5z M39.1,114.5l5.1-5.1v5.1
	H39.1z"/>
</svg>
