<?xml version="1.0" encoding="utf-8"?>
<!-- Generator: Adobe Illustrator 20.1.0, SVG Export Plug-In . SVG Version: 6.00 Build 0)  -->
<svg version="1.1" id="Layer_1" xmlns="http://www.w3.org/2000/svg" xmlns:xlink="http://www.w3.org/1999/xlink" x="0px" y="0px"
	 viewBox="0 0 50 50" style="enable-background:new 0 0 50 50;" xml:space="preserve">
<path style="fill:#FFFFFF;" d="M25,0.5C11.5,0.5,0.5,11.5,0.5,25s11,24.5,24.5,24.5s24.5-11,24.5-24.5S38.5,0.5,25,0.5z M16,38h-6
	V19h6V38z M13.8,17.5c-1.7,0-3-1.3-3-3s1.3-3,3-3c1.7,0,3,1.3,3,3S15.4,17.5,13.8,17.5z M38,38h-6v-8.5c0-2.2,0.2-4.9-2.8-4.9
	c-3,0-3.2,2.3-3.2,4.8V38h-6V20h6v2h0.4c0.8-1,2.3-2.7,5.1-2.7c5.8,0,6.5,4.1,6.5,9.1V38z"/>
</svg>
