<?xml version="1.0" encoding="utf-8"?>
<!-- Generator: Adobe Illustrator 20.1.0, SVG Export Plug-In . SVG Version: 6.00 Build 0)  -->
<svg version="1.1" id="Layer_1" xmlns="http://www.w3.org/2000/svg" xmlns:xlink="http://www.w3.org/1999/xlink" x="0px" y="0px"
	 viewBox="0 0 50 50" style="enable-background:new 0 0 50 50;" xml:space="preserve">
<path style="fill:#FFFFFF;" d="M39.8,1H10.2C5.1,1,1,5.1,1,10.2v29.6c0,5.1,4.1,9.2,9.2,9.2h29.6c5.1,0,9.2-4.1,9.2-9.2V10.2
	C49,5.1,44.9,1,39.8,1z M15,42H8V19h7V42z M11.4,17.1c-2,0-3.6-1.6-3.6-3.6S9.4,10,11.4,10c2,0,3.6,1.6,3.6,3.6S13.3,17.1,11.4,17.1
	z M41,42h-7V31.3c0-2.5,0.3-5.8-3.2-5.8c-3.6,0-3.8,2.8-3.8,5.6V42h-7V20h6v3h0.3c0.9-2,3.1-3.5,6.5-3.5c6.9,0,8.2,4.6,8.2,10.5V42z
	"/>
</svg>
