<svg xmlns="http://www.w3.org/2000/svg" viewBox="0 0 340.3 379.7" enable-background="new 0 0 340.3 379.7"><style type="text/css">.st0{fill:#FFFFFF;}</style><path d="M170.4 134.8l-136 45.3 115.8-52L.5 78.2v113.2h.1L170.4 248l169.9-56.6V78.2zM33.6 67.6c7.7 0 12.9-1.5 15.5-2.8l-2.4-13.3c-3.5 1.6-6.6 2.5-11 2.5-11.3 0-19.1-6.9-19.1-20 0-14.6 9.8-20.1 19.1-20.1 5.2 0 8.3 1.2 11.1 2.4L49.2 3C46.5 1.4 42.6 0 35 0 15.6 0 0 11.8 0 34.1c0 18.8 12.3 33.5 33.6 33.5zM133.1 67.6c6.4 0 12.7-1.1 18.2-3.8l-2.2-11.3c-3.7 2.2-9.1 3.5-13.9 3.5-7.8-.1-12.9-3.3-13.4-9.4h31.5c.2-1.1.3-3.5.3-5 0-14.1-6.9-25.4-22.2-25.4-14.9 0-24.8 9.9-24.8 25.3 0 15.7 9.3 26.1 26.5 26.1zm-2.3-41.1c6.7 0 8.4 6.2 8.4 9.8h-17.5c.4-4.8 3.2-9.8 9.1-9.8zM188.3 65.6l16-47.5h-16l-8.7 33.6h-.3l-8.7-33.6h-15.9l16 47.5zM208.4 33.7v31.9h14.4V43.3c0-1.3.1-2.3.3-3.3.9-4.7 4.3-8.7 9.9-9.2 1.9-.2 4.5.1 5.8.4V17.3c-1.4-.3-2.6-.4-4.8-.3-4.7.3-9.3 2.9-11.7 9.9h-.4l-.4-8.8h-13.6c.3 4 .5 8.6.5 15.6zM265.1 67.6c15.2 0 24.6-10.2 24.6-25.8 0-15.6-9.4-25.8-24.6-25.8-15.2 0-24.6 10.2-24.6 25.8 0 15.6 9.4 25.8 24.6 25.8zm0-40.2c6.9 0 9.6 6.7 9.6 14.5 0 7.7-2.7 14.4-9.6 14.4-6.9 0-9.6-6.7-9.6-14.4.1-7.8 2.7-14.5 9.6-14.5zM324.5 16.5c-7.8 0-12.8 5.1-14.7 8.2h-.3l-.3-6.6h-13.6c.3 4.2.5 9.2.5 15.1v32.3h14.5V38.2c0-1.4.1-2.7.5-3.7.9-2.7 3.4-5.5 7.4-5.5 5.2 0 7.3 4.2 7.3 10.3v26.3h14.5V37c0-13.9-6.2-20.5-15.8-20.5zM70.2 37.4c0-4.1 2.6-8.4 7.7-8.4 5.4 0 7.5 4.3 7.5 10.5v26.1H100V37.4c0-14.4-6.2-20.9-15.4-20.9-5.8 0-11.3 2.6-14.2 6.8h-.2V.2l-14.5 5v60.3h14.5V37.4zM170.4 266.5l-136 45.3 115.8-52.1L.5 209.8v113.3h.1l169.8 56.6 169.9-56.6V209.8z" class="st0"/></svg>