<?xml version="1.0" encoding="utf-8"?>
<!-- Generator: Adobe Illustrator 20.1.0, SVG Export Plug-In . SVG Version: 6.00 Build 0)  -->
<svg version="1.1" id="Layer_1" xmlns="http://www.w3.org/2000/svg" xmlns:xlink="http://www.w3.org/1999/xlink" x="0px" y="0px"
	 viewBox="0 0 252.5 78.4" style="enable-background:new 0 0 252.5 78.4;" xml:space="preserve">
<style type="text/css">
	.st0{fill:#ACDEDC;}
	.st1{fill:#FFFFFF;}
	.st2{fill:#6A9BAC;}
</style>
<path class="st0" d="M47.2,78.8h2.9v-3.3c3.1-0.7,5.4-3.4,5.4-6.7c0-1.3-0.3-2.4-0.9-3.4c0.4,0,0.7-0.1,1-0.4l4.1-4.1v17.6h3.1V60.2
	l4.3,4.3c0.3,0.3,0.7,0.5,1.1,0.5s0.8-0.2,1.1-0.5c0.6-0.6,0.6-1.6,0-2.1l-6.4-6.4v-3.2l4.3,4.3c0.3,0.3,0.7,0.5,1.1,0.5
	s0.8-0.2,1.1-0.5c0.6-0.6,0.6-1.6,0-2.1l-6.4-6.4v-3.2l4.3,4.3c0.3,0.3,0.7,0.5,1.1,0.5s0.8-0.2,1.1-0.5c0.6-0.6,0.6-1.6,0-2.1
	l-6.7-6.7c-0.3-0.3-0.8-0.4-1.2-0.4c-0.4-0.1-0.9,0.1-1.2,0.4l-6.6,6.7c-0.6,0.6-0.6,1.6,0,2.1c0.3,0.3,0.7,0.5,1.1,0.5
	c0.4,0,0.8-0.2,1.1-0.5l4.1-4.1v3.2l-6.2,6.4c-0.6,0.6-0.6,1.6,0,2.1c0.3,0.3,0.7,0.5,1.1,0.5c0.4,0,0.8-0.2,1.1-0.5l4.1-4.1v3.2
	l-6.2,6.2c-0.2,0.2-0.3,0.4-0.4,0.7c-1.2-1.1-2.7-1.7-4.4-1.7c-3.8,0-6.9,3.1-6.9,6.9c0,3.3,2.3,6,5.4,6.7v3.3
	C47.2,78.6,47.2,78.8,47.2,78.8z M50.2,72v-3.5h-3.1v3.4c-1.3-0.5-2.2-1.9-2.2-3.4c0-2.1,1.8-3.8,3.8-3.8c2.1,0,3.8,1.8,3.8,3.8
	C52.4,70.1,51.6,71.4,50.2,72z"/>
<path class="st1" d="M56.6,71h-4.3V23.3h2.3v-8.5h-1.3L28.8,2.2L4.1,14.8H1.9v8.5h2.3v47.6H0v7.6h56.6V71z M36.8,49.8v-2.9h8.8v2.9
	H36.8z M45.7,55.7v2.9h-8.8v-2.9H45.7z M36.8,40.6v-2.9h8.8v2.9H36.8z M36.8,31.2v-2.9h8.8v2.9H36.8z M34.5,37.6v2.9H22.8v-2.9H34.5
	z M22.7,31.2v-2.9h11.7v2.9H22.7z M34.5,46.8v2.9H22.8v-2.9H34.5z M35,55.7V71H22.1V55.7H35z M11.6,49.8v-2.9h8.8v2.9H11.6z
	 M20.4,55.7v2.9h-8.8v-2.9H20.4z M11.6,40.6v-2.9h8.8v2.9H11.6z M11.6,31.2v-2.9h8.8v2.9H11.6z"/>
<path class="st1" d="M130.4,71h-4.3V23.3h2.3v-8.5h-1.3L102.4,2.2L77.8,14.8h-2.1v8.5H78v47.6h-4.3v7.6h56.6L130.4,71L130.4,71z
	 M110.6,49.8v-2.9h8.8v2.9H110.6z M119.4,55.7v2.9h-8.8v-2.9H119.4z M110.6,40.6v-2.9h8.8v2.9H110.6z M110.6,31.2v-2.9h8.8v2.9
	H110.6z M108.2,37.6v2.9H96.5v-2.9H108.2z M96.5,31.2v-2.9h11.7v2.9H96.5z M108.2,46.8v2.9H96.5v-2.9H108.2z M108.8,55.7V71h-13
	V55.7H108.8z M85.3,49.8v-2.9h8.8v2.9H85.3z M94.1,55.7v2.9h-8.8v-2.9H94.1z M85.3,40.6v-2.9h8.8v2.9H85.3z M85.3,31.2v-2.9h8.8v2.9
	H85.3z"/>
<path class="st2" d="M155,78.6v-3.3c3-0.7,5.4-3.4,5.4-6.7c0-3.8-3.1-6.9-6.9-6.9c-1.7,0-3.2,0.6-4.4,1.7c-0.1-0.3-0.2-0.5-0.4-0.7
	l-6.2-6.2v-3.2l4.1,4.1c0.3,0.3,0.7,0.5,1.1,0.5s0.8-0.2,1.1-0.5c0.6-0.6,0.6-1.6,0-2.1l-6.2-6.4v-3.2l4.1,4.1
	c0.3,0.3,0.7,0.5,1.1,0.5c0.4,0,0.8-0.2,1.1-0.5c0.6-0.6,0.6-1.6,0-2.1l-6.6-6.7c-0.3-0.3-0.8-0.5-1.2-0.4c-0.4,0-0.9,0.1-1.2,0.4
	l-6.7,6.7c-0.6,0.6-0.6,1.6,0,2.1c0.3,0.3,0.7,0.5,1.1,0.5s0.8-0.2,1.1-0.5l4.3-4.3v3.2l-6.4,6.4c-0.6,0.6-0.6,1.6,0,2.1
	c0.3,0.3,0.7,0.5,1.1,0.5s0.8-0.2,1.1-0.5l4.3-4.3V56l-6.4,6.4c-0.6,0.6-0.6,1.6,0,2.1c0.3,0.3,0.7,0.5,1.1,0.5s0.8-0.2,1.1-0.5
	l4.3-4.3v18.1h3.1V60.8l4.1,4.1c0.3,0.3,0.6,0.4,1,0.4c-0.6,1-0.9,2.1-0.9,3.4c0,3.3,2.2,6,5.4,6.7v3.3L155,78.6L155,78.6L155,78.6z
	 M149.7,68.6c0-2,1.7-3.8,3.8-3.8c2,0,3.8,1.7,3.8,3.8c0,1.6-1,2.8-2.2,3.4v-3.4h-3.1v3.5C150.6,71.5,149.7,70.2,149.7,68.6z"/>
<path class="st0" d="M201.2,78.7h2.9v-3.3c3.1-0.7,5.4-3.4,5.4-6.7c0-1.3-0.3-2.4-0.9-3.4c0.4,0,0.7-0.1,1-0.4l4.1-4.1v17.6h3.1
	V60.2l4.3,4.3c0.3,0.3,0.7,0.5,1.1,0.5c0.4,0,0.8-0.2,1.1-0.5c0.6-0.6,0.6-1.6,0-2.1l-6.4-6.4v-3.2l4.3,4.3c0.3,0.3,0.7,0.5,1.1,0.5
	c0.4,0,0.8-0.2,1.1-0.5c0.6-0.6,0.6-1.6,0-2.1l-6.4-6.4v-3.2l4.3,4.3c0.3,0.3,0.7,0.5,1.1,0.5c0.4,0,0.8-0.2,1.1-0.5
	c0.6-0.6,0.6-1.6,0-2.1l-6.7-6.7c-0.3-0.3-0.8-0.4-1.2-0.4c-0.4-0.1-0.9,0.1-1.2,0.4l-6.6,6.7c-0.6,0.6-0.6,1.6,0,2.1
	c0.3,0.3,0.7,0.5,1.1,0.5c0.4,0,0.8-0.2,1.1-0.5l4.1-4.1v3.2l-6.2,6.4c-0.6,0.6-0.6,1.6,0,2.1c0.3,0.3,0.7,0.5,1.1,0.5
	c0.4,0,0.8-0.2,1.1-0.5l4.1-4.1v3.2l-6.2,6.2c-0.2,0.2-0.3,0.4-0.4,0.7c-1.2-1.1-2.7-1.7-4.4-1.7c-3.8,0-6.9,3.1-6.9,6.9
	c0,3.3,2.3,6,5.4,6.7v3.3L201.2,78.7L201.2,78.7z M204.2,71.9v-3.5h-3.1v3.4c-1.3-0.6-2.2-1.9-2.2-3.4c0-2.1,1.8-3.8,3.8-3.8
	c2.1,0,3.8,1.8,3.8,3.8C206.4,70,205.6,71.4,204.2,71.9z"/>
<path class="st1" d="M204.6,71h-4.3V23.3h2.3v-8.5h-1.3L176.6,2.2l-24.7,12.6h-2.1v8.5h2.3v47.6h-4.3v7.6h56.6L204.6,71L204.6,71z
	 M184.8,49.8v-2.9h8.8v2.9H184.8z M193.6,55.7v2.9h-8.8v-2.9H193.6z M184.8,40.6v-2.9h8.8v2.9H184.8z M184.8,31.2v-2.9h8.8v2.9
	H184.8z M182.4,37.6v2.9h-11.7v-2.9H182.4z M170.7,31.2v-2.9h11.7v2.9H170.7z M182.4,46.8v2.9h-11.7v-2.9H182.4z M182.9,55.7V71h-13
	V55.7H182.9z M159.5,49.8v-2.9h8.8v2.9H159.5z M168.2,55.7v2.9h-8.8v-2.9H168.2z M159.5,40.6v-2.9h8.8v2.9H159.5z M159.5,31.2v-2.9
	h8.8v2.9H159.5z"/>
<path class="st1" d="M223.3,67.9"/>
<path class="st1" d="M243.7,63.8l-2.2-5.8c-0.4-1.1-1.4-2-3-2h-3.1h-5.4h-3.2c-1.8,0-2.6,1-3,2l-2.2,5.8c-0.9,0.1-2.4,1.2-2.4,3.1
	v7.3h2.1v2.3c0,2.8,4.1,2.8,4.1,0v-2.3h7.3h7.3v2.3c0,2.8,4.1,2.8,4.1,0v-2.3h2.1v-7.3C246.1,65,244.5,63.9,243.7,63.8z M223.3,69.7
	c-1.1,0-1.9-0.9-1.9-1.9c0-1.1,0.9-1.9,1.9-1.9c1.1,0,1.9,0.9,1.9,1.9C225.1,69,224.3,69.7,223.3,69.7z M232.6,63.7L232.6,63.7h-8.8
	l1.7-4.5c0.2-0.7,0.5-1.1,1.3-1.1h5.8l0,0h5.8c0.7,0,1.1,0.5,1.3,1.1l1.7,4.5H232.6z M241.8,69.7c-1.1,0-1.9-0.9-1.9-1.9
	c0-1.1,0.9-1.9,1.9-1.9c1.1,0,1.9,0.9,1.9,1.9C243.7,69,242.9,69.7,241.8,69.7z"/>
<path class="st1" d="M241.8,67.9"/>
</svg>
