<?xml version="1.0" encoding="utf-8"?>
<!-- Generator: Adobe Illustrator 20.1.0, SVG Export Plug-In . SVG Version: 6.00 Build 0)  -->
<svg version="1.1" id="Layer_1" xmlns="http://www.w3.org/2000/svg" xmlns:xlink="http://www.w3.org/1999/xlink" x="0px" y="0px"
	 viewBox="0 0 235.3 99.3" style="enable-background:new 0 0 235.3 99.3;" xml:space="preserve">
<style type="text/css">
	.st0{fill:#FFFFFF;}
	.st1{fill:#6A9BAC;}
	.st2{fill:#B7E2E1;}
</style>
<g>
	<path class="st0" d="M15.2,93.1c0.2,0.5,0.5,0.9,1,1h2.9c0-8.6,12.7-8.6,12.7,0h32.6c0-8.6,12.8-8.6,12.8,0h3.5c0.3-0.1,0.6,0,1-1
		l0-6.3c-0.2-0.6-0.5-0.8-0.7-1l-18.4-3l-8.4-8.4c-0.3-0.3-0.6-0.6-1.2-0.6H27.9l-12.5,9.9c-0.1,0.3-0.2,0.5-0.2,0.7L15.2,93.1z
		 M42.2,76.3h11.1c0.2,0,0.4,0.1,0.5,0.2l6.3,6.2c0.3,0.5,0.2,0.9-0.5,1.1H42.2L42.2,76.3z M24.9,82l5.4-5.4
		c0.1-0.1,0.3-0.3,0.5-0.2h9.4v7.6H24.2C23.4,83.7,24.4,82.7,24.9,82z"/>
	<path class="st0" d="M65.6,94c0,2.9,2.3,5.2,5.2,5.2c2.9,0,5.2-2.3,5.2-5.2c0-2.9-2.3-5.2-5.2-5.2C67.9,88.9,65.6,91.2,65.6,94z
		 M68.6,94c0-1.2,1-2.2,2.2-2.2c1.2,0,2.2,1,2.2,2.2c0,1.2-1,2.2-2.2,2.2C69.6,96.2,68.6,95.2,68.6,94z"/>
	<path class="st0" d="M20.2,94c0,2.9,2.3,5.2,5.2,5.2s5.2-2.3,5.2-5.2s-2.3-5.2-5.2-5.2C22.5,88.9,20.2,91.2,20.2,94z M23.2,94
		c0-1.2,1-2.2,2.2-2.2c1.2,0,2.2,1,2.2,2.2c0,1.2-1,2.2-2.2,2.2S23.2,95.2,23.2,94z"/>
</g>
<path class="st1" d="M19.1,96.6h-2.2V78.3c0.6,0,0.6,0.3,0.6,0.5V93c0,1.9,1.4,3.1,3,3.1c1.7,0,2.9-1.3,2.9-3.1
	c0-1.8-2.3-6.8-2.3-8.5V71c0-1-0.4-1.9-0.9-2.3L16.9,66v-2.1c0-0.8-0.7-1.5-1.5-1.5H3.7c-0.8,0-1.5,0.7-1.5,1.5v32.7H0v2.6h19.1
	V96.6z M13.9,72.7H5.1c-0.4,0-0.8-0.3-0.8-0.8v-6.7c0-0.4,0.4-0.8,0.8-0.8h8.8c0.4,0,0.8,0.3,0.8,0.8v6.7
	C14.7,72.3,14.3,72.7,13.9,72.7z M20.4,94.7c-0.9,0-1.5-0.7-1.5-1.7V77.4c0-0.5-0.6-0.8-1.2-0.8h-0.8V68c0.4,0.3,0.7,0.6,0.7,1v2.8
	h2v12.2c0,3.1,2.4,7.2,2.4,9C21.9,94,21.4,94.7,20.4,94.7z"/>
<g>
	<path class="st0" d="M116.6,83.8c3.9,0,7.4,6.2,7.4,9.7h-2.6c-0.5-7.9-9.2-8.8-11.9-5.3l0,0.3h-2.6l0-0.3
		c-2.7-3.5-11.5-2.6-11.9,5.3h-2.6c0-3.4,3.5-9.7,7.4-9.7H116.6z"/>
	<path class="st0" d="M108.9,93.2c0,3.1,2.5,5.7,5.7,5.7c3.1,0,5.7-2.5,5.7-5.7c0-3.1-2.5-5.7-5.6-5.7C111.5,87.5,109,90,108.9,93.2
		"/>
	<path class="st0" d="M96.4,93.2c0,3.1,2.5,5.7,5.7,5.7c3.1,0,5.7-2.5,5.7-5.7c0-3.1-2.5-5.7-5.6-5.7C99,87.5,96.4,90,96.4,93.2"/>
	<path class="st0" d="M168.9,93.2c0,3.1,2.5,5.7,5.7,5.7c3.1,0,5.7-2.5,5.7-5.7c0-3.1-2.5-5.7-5.6-5.7
		C171.5,87.5,168.9,90,168.9,93.2"/>
	<path class="st0" d="M146.5,93.2c0,3.1,2.5,5.7,5.7,5.7c3.1,0,5.7-2.5,5.7-5.7c0-3.1-2.5-5.7-5.6-5.7
		C149.1,87.5,146.5,90,146.5,93.2"/>
	<path class="st0" d="M161.4,60.2l0,21.9l-68.8,0V60.3L161.4,60.2z"/>
	<path class="st0" d="M142.5,93.4h2.6c0.5-8.1,9.8-9.4,13.8-2.6h9.1c3.7-7.2,11.9-5.9,14.1,2.6h2.8c1,0,1.6-0.8,1.6-1.7l0-12.8
		l-5-13.4l-13.9,0l0.1,18.1h-17.8C146,83.8,142.5,90,142.5,93.4z M172.8,77l0-8.2l8.5,0l3.4,9.5L172.8,77z"/>
</g>
<path class="st2" d="M131.3,17.6l4.6-1.3l10.3,3.2l15.8-5l3.1,0.7l-10.1,6.9l9.1,2.8l6.3-1l3.7,0.9l-6.1,4l-5-0.1
	c-3.2-0.1-6.4-0.5-9.5-1.3l-14.5-3.5c-3-0.7-5.8-2.1-8.2-4l0,0C130,19.3,130.2,17.9,131.3,17.6z"/>
<path class="st0" d="M224.1,48.5h5.2c0.3,0,0.6-0.1,0.7-0.6l5.2-23.2c0.1-0.4-0.3-0.8-0.7-0.8h-7.6c-0.4,0-0.7-0.3-0.7-0.7V16
	c0-0.4-0.3-0.7-0.7-0.7h-11.6c-0.4,0-0.7-0.3-0.7-0.7V8.5c0-0.4,0.3-0.7,0.7-0.7h5.8c0.4,0,0.7-0.3,0.7-0.7V0.7
	c0-0.4-0.3-0.7-0.7-0.7H199c-0.4,0-0.7,0.3-0.7,0.7v6.4c0,0.4,0.3,0.7,0.7,0.7h5.8c0.4,0,0.7,0.3,0.7,0.7V15c0,0.4-0.3,0.7-0.7,0.7
	h-11.6c-0.4,0-0.7,0.3-0.7,0.7v7.2c0,0.4-0.3,0.7-0.7,0.7h-7.6c-0.4,0-0.7,0.4-0.7,0.8l5.5,22.9c0,0.3,0.3,0.6,0.7,0.6h5.2
	c0.4,0,0.7,0.3,0.7,0.7v35.4c0,0.4-0.3,0.7-0.7,0.7h-9.6c-0.4,0-0.7,0.3-0.7,0.7v12.5c0,0.4,0.3,0.7,0.7,0.7h48.4
	c0.4,0,0.7-0.3,0.7-0.7V86.2c0-0.4-0.3-0.7-0.7-0.7h-9.6c-0.4,0-0.7-0.3-0.7-0.7V49.4C223.5,48.8,223.8,48.5,224.1,48.5z
	 M228.6,29.9L225.2,43c-0.1,0.3-0.3,0.4-0.6,0.4h-10.5c-0.4,0-0.7-0.3-0.7-0.7v-13c0-0.4,0.3-0.7,0.7-0.7h13.7
	C228.3,29,228.6,29.4,228.6,29.9z M193.8,43l-3.4-13.2c-0.1-0.4,0.1-0.8,0.6-0.8h13.9c0.4,0,0.7,0.3,0.7,0.7v13.2
	c0,0.4-0.3,0.7-0.7,0.7h-10.5C194.2,43.6,193.9,43.3,193.8,43z"/>
</svg>
