<?xml version="1.0" encoding="utf-8"?>
<!-- Generator: Adobe Illustrator 20.1.0, SVG Export Plug-In . SVG Version: 6.00 Build 0)  -->
<svg version="1.1" id="Layer_1" xmlns="http://www.w3.org/2000/svg" xmlns:xlink="http://www.w3.org/1999/xlink" x="0px" y="0px"
	 viewBox="0 0 50 50" style="enable-background:new 0 0 50 50;" xml:space="preserve">
<g>
	<path style="fill:#FFFFFF;" d="M25.5,0.5C12,0.5,1,11.5,1,25s11,24.5,24.5,24.5S50,38.5,50,25S39,0.5,25.5,0.5z M36.6,19
		c0,0.3,0,0.5,0,0.8c0,8-5.8,17.2-16.3,17.2c-3.2,0-6.3-1-8.8-2.7c0.5,0.1,0.9,0.1,1.4,0.1c2.7,0,5.2-1,7.1-2.6
		c-2.5,0-4.6-1.8-5.4-4.2c0.4,0.1,0.7,0.1,1.1,0.1c0.5,0,1.2-0.1,1.7-0.2c-2.6-0.6-4.4-3-4.4-5.9c0,0,0-0.1,0-0.1
		c0,0.5,1.5,0.7,2.4,0.8c-1.5-1.1-2.6-2.9-2.6-5c0-1.1,0.2-2.2,0.7-3c2.8,3.7,7,6.1,11.8,6.3c-0.1-0.4-0.2-0.9-0.2-1.4
		c0-3.3,2.6-6.1,5.7-6.1c1.7,0,3.1,0.7,4.2,1.9c1.3-0.3,2.5-0.8,3.6-1.5c-0.4,1.4-1.3,2.6-2.5,3.4c1.2-0.1,2.3-0.5,3.3-1
		C38.7,17.1,37.8,18.1,36.6,19z"/>
</g>
</svg>
