<?xml version="1.0" encoding="utf-8"?>
<!-- Generator: Adobe Illustrator 20.1.0, SVG Export Plug-In . SVG Version: 6.00 Build 0)  -->
<svg version="1.1" id="Layer_1" xmlns="http://www.w3.org/2000/svg" xmlns:xlink="http://www.w3.org/1999/xlink" x="0px" y="0px"
	 viewBox="0 0 50 50" style="enable-background:new 0 0 50 50;" xml:space="preserve">
<g>
	<path style="fill:#FFFFFF;" d="M39.8,1H10.2C5.1,1,1,5.1,1,10.2v29.6c0,5.1,4.1,9.2,9.2,9.2h29.6c5.1,0,9.2-4.1,9.2-9.2V10.2
		C49,5.1,44.9,1,39.8,1z M44,33c0,2.8-2.2,5-5,5H12c-2.8,0-5-2.2-5-5V17c0-2.8,2.2-5,5-5h27c2.8,0,5,2.2,5,5V33z"/>
	<polygon style="fill:#FFFFFF;" points="22,20 22,29 30,25 	"/>
</g>
</svg>
