<?xml version="1.0" encoding="utf-8"?>
<!-- Generator: Adobe Illustrator 20.1.0, SVG Export Plug-In . SVG Version: 6.00 Build 0)  -->
<svg version="1.1" id="Layer_1" xmlns="http://www.w3.org/2000/svg" xmlns:xlink="http://www.w3.org/1999/xlink" x="0px" y="0px"
	 viewBox="0 0 50 50" style="enable-background:new 0 0 50 50;" xml:space="preserve">
<polygon style="fill:#FFFFFF;" points="21,20.5 21,29.5 29,25.5 "/>
<path style="fill:#FFFFFF;" d="M25,0.5C11.5,0.5,0.5,11.5,0.5,25c0,13.5,11,24.5,24.5,24.5c13.5,0,24.5-11,24.5-24.5
	C49.5,11.5,38.5,0.5,25,0.5z M40,31.7c0,2.4-1.9,4.3-4.3,4.3H14.3c-2.4,0-4.3-1.9-4.3-4.3V18.3c0-2.4,1.9-4.3,4.3-4.3h21.4
	c2.4,0,4.3,1.9,4.3,4.3V31.7z"/>
</svg>
